<svg width="367" height="85" viewBox="0 0 367 85" fill="none" xmlns="http://www.w3.org/2000/svg">
<path d="M31.35 84.9C27.3 84.9 23.525 84.25 20.025 82.95C16.575 81.6 13.575 79.7 11.025 77.25C8.475 74.8 6.475 71.925 5.025 68.625C3.625 65.325 2.925 61.7 2.925 57.75C2.925 53.8 3.625 50.175 5.025 46.875C6.475 43.575 8.475 40.7 11.025 38.25C13.625 35.8 16.65 33.925 20.1 32.625C23.55 31.275 27.325 30.6 31.425 30.6C35.975 30.6 40.075 31.4 43.725 33C47.425 34.55 50.525 36.85 53.025 39.9L45.225 47.1C43.425 45.05 41.425 43.525 39.225 42.525C37.025 41.475 34.625 40.95 32.025 40.95C29.575 40.95 27.325 41.35 25.275 42.15C23.225 42.95 21.45 44.1 19.95 45.6C18.45 47.1 17.275 48.875 16.425 50.925C15.625 52.975 15.225 55.25 15.225 57.75C15.225 60.25 15.625 62.525 16.425 64.575C17.275 66.625 18.45 68.4 19.95 69.9C21.45 71.4 23.225 72.55 25.275 73.35C27.325 74.15 29.575 74.55 32.025 74.55C34.625 74.55 37.025 74.05 39.225 73.05C41.425 72 43.425 70.425 45.225 68.325L53.025 75.525C50.525 78.575 47.425 80.9 43.725 82.5C40.075 84.1 35.95 84.9 31.35 84.9ZM77.8102 84V76.125L77.0602 74.4V60.3C77.0602 57.8 76.2852 55.85 74.7352 54.45C73.2352 53.05 70.9102 52.35 67.7602 52.35C65.6102 52.35 63.4852 52.7 61.3852 53.4C59.3352 54.05 57.5852 54.95 56.1352 56.1L51.9352 47.925C54.1352 46.375 56.7852 45.175 59.8852 44.325C62.9852 43.475 66.1352 43.05 69.3352 43.05C75.4852 43.05 80.2602 44.5 83.6602 47.4C87.0602 50.3 88.7602 54.825 88.7602 60.975V84H77.8102ZM65.5102 84.6C62.3602 84.6 59.6602 84.075 57.4102 83.025C55.1602 81.925 53.4352 80.45 52.2352 78.6C51.0352 76.75 50.4352 74.675 50.4352 72.375C50.4352 69.975 51.0102 67.875 52.1602 66.075C53.3602 64.275 55.2352 62.875 57.7852 61.875C60.3352 60.825 63.6602 60.3 67.7602 60.3H78.4852V67.125H69.0352C66.2852 67.125 64.3852 67.575 63.3352 68.475C62.3352 69.375 61.8352 70.5 61.8352 71.85C61.8352 73.35 62.4102 74.55 63.5602 75.45C64.7602 76.3 66.3852 76.725 68.4352 76.725C70.3852 76.725 72.1352 76.275 73.6852 75.375C75.2352 74.425 76.3602 73.05 77.0602 71.25L78.8602 76.65C78.0102 79.25 76.4602 81.225 74.2102 82.575C71.9602 83.925 69.0602 84.6 65.5102 84.6ZM108.724 84.6C103.974 84.6 100.274 83.4 97.6242 81C94.9742 78.55 93.6492 74.925 93.6492 70.125V34.725H105.349V69.975C105.349 71.675 105.799 73 106.699 73.95C107.599 74.85 108.824 75.3 110.374 75.3C112.224 75.3 113.799 74.8 115.099 73.8L118.249 82.05C117.049 82.9 115.599 83.55 113.899 84C112.249 84.4 110.524 84.6 108.724 84.6ZM87.4242 53.55V44.55H115.399V53.55H87.4242Z" fill="black"/>
<path d="M188.926 84.9C184.726 84.9 180.701 84.35 176.851 83.25C173.001 82.1 169.901 80.625 167.551 78.825L171.676 69.675C173.926 71.275 176.576 72.6 179.626 73.65C182.726 74.65 185.851 75.15 189.001 75.15C191.401 75.15 193.326 74.925 194.776 74.475C196.276 73.975 197.376 73.3 198.076 72.45C198.776 71.6 199.126 70.625 199.126 69.525C199.126 68.125 198.576 67.025 197.476 66.225C196.376 65.375 194.926 64.7 193.126 64.2C191.326 63.65 189.326 63.15 187.126 62.7C184.976 62.2 182.801 61.6 180.601 60.9C178.451 60.2 176.476 59.3 174.676 58.2C172.876 57.1 171.401 55.65 170.251 53.85C169.151 52.05 168.601 49.75 168.601 46.95C168.601 43.95 169.401 41.225 171.001 38.775C172.651 36.275 175.101 34.3 178.351 32.85C181.651 31.35 185.776 30.6 190.726 30.6C194.026 30.6 197.276 31 200.476 31.8C203.676 32.55 206.501 33.7 208.951 35.25L205.201 44.475C202.751 43.075 200.301 42.05 197.851 41.4C195.401 40.7 193.001 40.35 190.651 40.35C188.301 40.35 186.376 40.625 184.876 41.175C183.376 41.725 182.301 42.45 181.651 43.35C181.001 44.2 180.676 45.2 180.676 46.35C180.676 47.7 181.226 48.8 182.326 49.65C183.426 50.45 184.876 51.1 186.676 51.6C188.476 52.1 190.451 52.6 192.601 53.1C194.801 53.6 196.976 54.175 199.126 54.825C201.326 55.475 203.326 56.35 205.126 57.45C206.926 58.55 208.376 60 209.476 61.8C210.626 63.6 211.201 65.875 211.201 68.625C211.201 71.575 210.376 74.275 208.726 76.725C207.076 79.175 204.601 81.15 201.301 82.65C198.051 84.15 193.926 84.9 188.926 84.9ZM229.553 84.6C224.803 84.6 221.103 83.4 218.453 81C215.803 78.55 214.478 74.925 214.478 70.125V34.725H226.178V69.975C226.178 71.675 226.628 73 227.528 73.95C228.428 74.85 229.653 75.3 231.203 75.3C233.053 75.3 234.628 74.8 235.928 73.8L239.078 82.05C237.878 82.9 236.428 83.55 234.728 84C233.078 84.4 231.353 84.6 229.553 84.6ZM208.253 53.55V44.55H236.228V53.55H208.253ZM257.976 84.6C253.676 84.6 249.851 83.7 246.501 81.9C243.201 80.1 240.576 77.65 238.626 74.55C236.726 71.4 235.776 67.825 235.776 63.825C235.776 59.775 236.726 56.2 238.626 53.1C240.576 49.95 243.201 47.5 246.501 45.75C249.851 43.95 253.676 43.05 257.976 43.05C262.226 43.05 266.026 43.95 269.376 45.75C272.726 47.5 275.351 49.925 277.251 53.025C279.151 56.125 280.101 59.725 280.101 63.825C280.101 67.825 279.151 71.4 277.251 74.55C275.351 77.65 272.726 80.1 269.376 81.9C266.026 83.7 262.226 84.6 257.976 84.6ZM257.976 75C259.926 75 261.676 74.55 263.226 73.65C264.776 72.75 266.001 71.475 266.901 69.825C267.801 68.125 268.251 66.125 268.251 63.825C268.251 61.475 267.801 59.475 266.901 57.825C266.001 56.175 264.776 54.9 263.226 54C261.676 53.1 259.926 52.65 257.976 52.65C256.026 52.65 254.276 53.1 252.726 54C251.176 54.9 249.926 56.175 248.976 57.825C248.076 59.475 247.626 61.475 247.626 63.825C247.626 66.125 248.076 68.125 248.976 69.825C249.926 71.475 251.176 72.75 252.726 73.65C254.276 74.55 256.026 75 257.976 75ZM301.796 84.6C297.446 84.6 293.571 83.725 290.171 81.975C286.771 80.175 284.096 77.7 282.146 74.55C280.246 71.4 279.296 67.825 279.296 63.825C279.296 59.775 280.246 56.2 282.146 53.1C284.096 49.95 286.771 47.5 290.171 45.75C293.571 43.95 297.446 43.05 301.796 43.05C306.046 43.05 309.746 43.95 312.896 45.75C316.046 47.5 318.371 50.025 319.871 53.325L310.796 58.2C309.746 56.3 308.421 54.9 306.821 54C305.271 53.1 303.571 52.65 301.721 52.65C299.721 52.65 297.921 53.1 296.321 54C294.721 54.9 293.446 56.175 292.496 57.825C291.596 59.475 291.146 61.475 291.146 63.825C291.146 66.175 291.596 68.175 292.496 69.825C293.446 71.475 294.721 72.75 296.321 73.65C297.921 74.55 299.721 75 301.721 75C303.571 75 305.271 74.575 306.821 73.725C308.421 72.825 309.746 71.4 310.796 69.45L319.871 74.4C318.371 77.65 316.046 80.175 312.896 81.975C309.746 83.725 306.046 84.6 301.796 84.6ZM330.438 75.75L330.738 61.5L349.563 43.65H363.513L345.438 62.025L339.363 66.975L330.438 75.75ZM320.763 84V28.35H332.463V84H320.763ZM350.838 84L337.188 67.05L344.538 57.975L365.013 84H350.838Z" fill="black"/>
<path d="M125.328 79.6692C123.844 78.3714 123.112 76.4046 123.397 74.5119C123.689 72.3181 125.951 70.5886 125.328 68.2163C125.019 63.0486 122.787 58.5727 124.779 53.8557C126.88 47.2149 133.898 45.1971 138.975 42.0465C140.185 41.7305 141.08 41.0848 141.889 40.3249C142.838 39.7611 143.663 39.0657 144.302 38.395C145.033 36.7069 144.649 34.6068 145.814 32.9545C146.624 31.8906 147.306 30.7171 148.479 29.8746C153.784 28.884 153.346 24.835 155.285 24.3004C158.046 23.7203 156.2 28.0466 157.438 29.3732C159.574 29.4414 161.082 30.3397 162.19 31.4725C162.853 32.6203 165.018 32.5058 165.393 33.6369C165.712 34.6676 164.655 35.9968 163.646 36.7971C162.759 37.5507 161.455 37.6781 160.795 38.5609C159.769 40.3071 161.14 42.7027 161.225 44.6642C161.089 46.7213 161.452 49.0038 159.825 50.6611C159.581 51.9999 157.952 52.6006 157.375 53.8312C156.049 55.5629 153.955 58.6043 154.039 60.6726C154.065 63.9004 155.65 67.7452 156.291 70.9295C157.801 71.4939 160.942 70.9055 160.486 72.2999C158.473 74.8406 146.704 74.4036 144.443 74.5581C139.744 74.4669 134.914 74.691 130.328 74.1381C127.615 73.498 127.146 75.1587 127.822 76.9276C128.471 77.856 129.369 78.6184 130.582 79.1685C132.651 79.7571 134.81 80.4917 137.223 80.4438C139.821 80.7612 141.999 80.5084 144.74 80.2932C146.409 79.5907 153.474 79.8363 149.702 81.3843C142.076 83.9897 128.815 83.4622 125.329 79.6702L125.328 79.6692Z" fill="#F9A620"/>
</svg>
